<svg width="680" height="320" viewBox="0 0 680 320" xmlns="http://www.w3.org/2000/svg">
  <rect width="680" height="320" rx="14" fill="#0D1117"/>
  <text x="340" y="30" text-anchor="middle" font-family="monospace" font-size="13" font-weight="600" fill="#00F7FF" opacity="0.9">Infrastructure Architecture</text>
  <rect x="30" y="44" width="620" height="258" rx="12" fill="#0a1520" stroke="#2088FF" stroke-width="0.8" stroke-dasharray="5 3"/>
  <text x="340" y="62" text-anchor="middle" font-family="monospace" font-size="10" fill="#2088FF" opacity="0.7">Hostinger VPS — Ubuntu 22.04  |  Only ports 80 &amp; 443 public</text>
  <rect x="110" y="70" width="200" height="40" rx="8" fill="#0F2027" stroke="#00F7FF" stroke-width="0.8"/>
  <text x="210" y="87" text-anchor="middle" font-family="monospace" font-size="11" fill="#00F7FF">secureops.dev</text>
  <text x="210" y="102" text-anchor="middle" font-family="monospace" font-size="10" fill="#7ecfcf">HTTPS :443</text>
  <rect x="370" y="70" width="200" height="40" rx="8" fill="#0F2027" stroke="#00F7FF" stroke-width="0.8"/>
  <text x="470" y="87" text-anchor="middle" font-family="monospace" font-size="11" fill="#00F7FF">sonar.secureops.dev</text>
  <text x="470" y="102" text-anchor="middle" font-family="monospace" font-size="10" fill="#7ecfcf">HTTPS :443</text>
  <line x1="210" y1="111" x2="210" y2="128" stroke="#444444" stroke-width="1" opacity="0.7"/>
  <line x1="470" y1="111" x2="470" y2="128" stroke="#444444" stroke-width="1" opacity="0.7"/>
  <line x1="210" y1="128" x2="470" y2="128" stroke="#444444" stroke-width="0.8" opacity="0.5"/>
  <line x1="340" y1="128" x2="340" y2="143" stroke="#444444" stroke-width="1" opacity="0.7"/>
  <polygon points="335,143 340,151 345,143" fill="#444444" opacity="0.7"/>
  <rect x="205" y="152" width="270" height="40" rx="8" fill="#0F2027" stroke="#009639" stroke-width="0.9"/>
  <text x="340" y="169" text-anchor="middle" font-family="monospace" font-size="12" fill="#009639">Nginx Reverse Proxy</text>
  <text x="340" y="184" text-anchor="middle" font-family="monospace" font-size="10" fill="#5cb87a">+ Let's Encrypt TLS</text>
  <line x1="340" y1="193" x2="340" y2="207" stroke="#444444" stroke-width="1" opacity="0.7"/>
  <line x1="160" y1="207" x2="520" y2="207" stroke="#444444" stroke-width="0.8" opacity="0.5"/>
  <line x1="160" y1="207" x2="160" y2="219" stroke="#444444" stroke-width="1" opacity="0.7"/>
  <polygon points="155,219 160,227 165,219" fill="#444444" opacity="0.7"/>
  <line x1="340" y1="207" x2="340" y2="219" stroke="#444444" stroke-width="1" opacity="0.7"/>
  <polygon points="335,219 340,227 345,219" fill="#444444" opacity="0.7"/>
  <line x1="520" y1="207" x2="520" y2="219" stroke="#444444" stroke-width="1" opacity="0.7"/>
  <polygon points="515,219 520,227 525,219" fill="#444444" opacity="0.7"/>
  <rect x="55" y="228" width="210" height="42" rx="8" fill="#0F2027" stroke="#a78bfa" stroke-width="0.8"/>
  <text x="160" y="246" text-anchor="middle" font-family="monospace" font-size="11" fill="#a78bfa">Backend API</text>
  <text x="160" y="261" text-anchor="middle" font-family="monospace" font-size="10" fill="#c4b5fd">Node.js  :3000</text>
  <rect x="235" y="228" width="210" height="42" rx="8" fill="#0F2027" stroke="#4E9BCD" stroke-width="0.8"/>
  <text x="340" y="246" text-anchor="middle" font-family="monospace" font-size="11" fill="#4E9BCD">PostgreSQL</text>
  <text x="340" y="261" text-anchor="middle" font-family="monospace" font-size="10" fill="#7aadee">Database  :5432</text>
  <rect x="415" y="228" width="210" height="42" rx="8" fill="#0F2027" stroke="#F5A623" stroke-width="0.8"/>
  <text x="520" y="246" text-anchor="middle" font-family="monospace" font-size="11" fill="#F5A623">SonarQube</text>
  <text x="520" y="261" text-anchor="middle" font-family="monospace" font-size="10" fill="#fbbf24">SAST Engine  :9000</text>
  <rect x="55" y="283" width="570" height="26" rx="6" fill="#111927" stroke="#2088FF" stroke-width="0.6" stroke-dasharray="3 2"/>
  <text x="340" y="300" text-anchor="middle" font-family="monospace" font-size="11" fill="#2088FF" opacity="0.8">Docker Compose Stack — all services containerised</text>
</svg>
